<svg width="22" height="24" viewBox="0 0 22 24" fill="none" xmlns="http://www.w3.org/2000/svg">
<path d="M19.9336 10.4752C19.7417 10.4752 19.556 10.502 19.3797 10.5512C19.2133 9.57708 18.3635 8.833 17.3426 8.833C17.0116 8.833 16.6989 8.91162 16.4212 9.0505C16.045 8.53549 15.4368 8.20002 14.7516 8.20002C14.5707 8.20002 14.395 8.2234 14.2277 8.2673V5.9694C14.2277 4.82967 13.3003 3.90234 12.1606 3.90234C11.0209 3.90234 10.0936 4.82967 10.0936 5.9694V11.2099C10.0733 11.219 10.0532 11.2285 10.0335 11.2395L8.85892 11.8933C7.75615 12.5073 7.3085 13.8412 7.81772 14.9961L8.69914 16.9951C8.74257 17.0937 8.80623 17.182 8.88593 17.2545L10.8328 19.0253C11.1648 19.6257 11.6014 20.1707 12.134 20.6341L12.1341 22.2476C12.1342 22.6736 12.4796 23.0191 12.9057 23.0191H19.1885C19.6145 23.0191 19.96 22.6736 19.96 22.2476L19.9602 20.634C21.2617 19.5019 22.0006 17.8873 22.0006 16.1466V12.5422C22.0006 11.4024 21.0733 10.4752 19.9336 10.4752ZM10.0451 16.2229L9.22957 14.3735C9.04379 13.9521 9.20712 13.4655 9.60941 13.2415L10.0935 12.972V16.1465C10.0935 16.1879 10.0959 16.2287 10.0967 16.2699L10.0451 16.2229ZM20.4575 16.1466C20.4575 17.5334 19.8244 18.812 18.7205 19.6547C18.5293 19.8006 18.4171 20.0274 18.4171 20.2679L18.4169 21.4759H13.6771L13.6769 20.2679C13.6769 20.0274 13.5647 19.8006 13.3736 19.6547C12.2696 18.812 11.6365 17.5333 11.6365 16.1466V5.9694C11.6365 5.68045 11.8716 5.44544 12.1605 5.44544C12.4493 5.44544 12.6846 5.68045 12.6846 5.9694V13.3837C12.6846 13.8098 13.0301 14.1552 13.4561 14.1552C13.8822 14.1552 14.2277 13.8098 14.2277 13.3837V10.2672C14.2277 9.97821 14.4628 9.7432 14.7516 9.7432C15.0405 9.7432 15.2756 9.97821 15.2756 10.2672V13.4474C15.2756 13.8735 15.6211 14.2189 16.0471 14.2189C16.4732 14.2189 16.8187 13.8735 16.8187 13.4474V10.9001C16.8187 10.6112 17.0538 10.3762 17.3426 10.3762C17.6315 10.3762 17.8666 10.6112 17.8666 10.9001V12.5423V13.3837C17.8666 13.8098 18.2121 14.1552 18.6381 14.1552C19.0642 14.1552 19.4097 13.8098 19.4097 13.3837V12.5423C19.4097 12.2533 19.6448 12.0183 19.9336 12.0183C20.2225 12.0183 20.4575 12.2533 20.4575 12.5423V16.1466Z" fill="#F9FCFB"/>
<path d="M1.26464 2.52929C1.96309 2.52929 2.52929 1.96309 2.52929 1.26464C2.52929 0.5662 1.96309 0 1.26464 0C0.5662 0 0 0.5662 0 1.26464C0 1.96309 0.5662 2.52929 1.26464 2.52929Z" fill="#F9FCFB"/>
<path d="M6.74121 2.52929C7.43965 2.52929 8.00585 1.96309 8.00585 1.26464C8.00585 0.5662 7.43965 0 6.74121 0C6.04276 0 5.47656 0.5662 5.47656 1.26464C5.47656 1.96309 6.04276 2.52929 6.74121 2.52929Z" fill="#F9FCFB"/>
<path d="M12.2178 2.52929C12.9162 2.52929 13.4824 1.96309 13.4824 1.26464C13.4824 0.5662 12.9162 0 12.2178 0C11.5193 0 10.9531 0.5662 10.9531 1.26464C10.9531 1.96309 11.5193 2.52929 12.2178 2.52929Z" fill="#F9FCFB"/>
<path d="M1.26464 6.74218C1.96309 6.74218 2.52929 6.17598 2.52929 5.47754C2.52929 4.77909 1.96309 4.21289 1.26464 4.21289C0.5662 4.21289 0 4.77909 0 5.47754C0 6.17598 0.5662 6.74218 1.26464 6.74218Z" fill="#F9FCFB"/>
<path d="M6.74121 6.74218C7.43965 6.74218 8.00585 6.17598 8.00585 5.47754C8.00585 4.77909 7.43965 4.21289 6.74121 4.21289C6.04276 4.21289 5.47656 4.77909 5.47656 5.47754C5.47656 6.17598 6.04276 6.74218 6.74121 6.74218Z" fill="#F9FCFB"/>
<path d="M1.26464 10.9551C1.96309 10.9551 2.52929 10.3889 2.52929 9.69043C2.52929 8.99198 1.96309 8.42578 1.26464 8.42578C0.5662 8.42578 0 8.99198 0 9.69043C0 10.3889 0.5662 10.9551 1.26464 10.9551Z" fill="#F9FCFB"/>
<path d="M6.74121 10.9551C7.43965 10.9551 8.00585 10.3889 8.00585 9.69043C8.00585 8.99198 7.43965 8.42578 6.74121 8.42578C6.04276 8.42578 5.47656 8.99198 5.47656 9.69043C5.47656 10.3889 6.04276 10.9551 6.74121 10.9551Z" fill="#F9FCFB"/>
</svg>
