<svg width="166" height="149" viewBox="0 0 166 149" fill="none" xmlns="http://www.w3.org/2000/svg">
<path d="M84.8733 0.320661L79.4806 1.71149L13.0422 18.8468L7.64953 20.2376C5.03201 20.9158 2.79037 22.6048 1.4164 24.9339C0.0424412 27.2631 -0.351636 30.0422 0.320627 32.6616L23.7043 123.349C24.3825 125.967 26.0712 128.209 28.4001 129.583C30.7289 130.958 33.5077 131.352 36.1267 130.679L36.1406 130.676L113.337 110.766L113.35 110.762C115.968 110.084 118.21 108.395 119.584 106.066C120.958 103.737 121.352 100.958 120.679 98.3385L97.2957 7.65052C96.6175 5.03267 94.9288 2.79074 92.5999 1.4166C90.2711 0.0424542 87.4923 -0.351681 84.8733 0.320661Z" fill="#F2F2F2"/>
<path d="M85.5783 3.2281L79.1983 4.87374L14.8212 21.479L8.44131 23.1246C6.5794 23.607 4.98486 24.8086 4.00753 26.4655C3.03019 28.1224 2.74987 30.0995 3.22807 31.9628L26.5855 122.558C27.0678 124.42 28.2691 126.015 29.9257 126.992C31.5822 127.97 33.5588 128.25 35.4218 127.772L35.4357 127.768L112.545 107.879L112.559 107.875C114.421 107.393 116.015 106.191 116.992 104.534C117.97 102.878 118.25 100.901 117.772 99.0372L94.4145 8.4425C93.9322 6.5802 92.7309 4.98532 91.0744 4.00777C89.4179 3.03022 87.4413 2.74982 85.5783 3.2281Z" fill="white"/>
<path d="M80.7406 32.4749L42.1001 42.9441C41.6686 43.061 41.2104 42.993 40.8266 42.7551C40.4427 42.5171 40.1645 42.1287 40.0532 41.6753C39.9419 41.2219 40.0067 40.7406 40.2331 40.3373C40.4596 39.9339 40.8293 39.6417 41.2609 39.5248L79.9013 29.0555C80.3327 28.9391 80.7905 29.0073 81.1741 29.2453C81.5576 29.4833 81.8355 29.8715 81.9468 30.3247C82.058 30.7779 81.9934 31.2589 81.7673 31.6621C81.5411 32.0653 81.1718 32.3576 80.7406 32.4749Z" fill="#F2F2F2"/>
<path d="M88.7317 36.2953L43.1125 47.947C42.6784 48.0578 42.2176 47.9934 41.8314 47.7677C41.4453 47.5421 41.1655 47.1738 41.0536 46.7439C40.9416 46.3139 41.0067 45.8575 41.2345 45.4751C41.4623 45.0927 41.8342 44.8156 42.2683 44.7047L87.8875 33.053C88.3216 32.9422 88.7824 33.0066 89.1686 33.2322C89.5547 33.4579 89.8345 33.8262 89.9464 34.2561C90.0584 34.6861 89.9933 35.1425 89.7655 35.5249C89.5377 35.9073 89.1658 36.1844 88.7317 36.2953Z" fill="#F2F2F2"/>
<path d="M87.7092 57.2269L48.1501 66.9481C47.9313 67.0018 47.7035 67.014 47.4798 66.9839C47.2561 66.9538 47.0408 66.882 46.8462 66.7726C46.6516 66.6632 46.4816 66.5183 46.3457 66.3463C46.2099 66.1743 46.1109 65.9784 46.0545 65.77C45.9981 65.5615 45.9853 65.3445 46.0169 65.1313C46.0485 64.9181 46.1239 64.7129 46.2387 64.5275C46.3535 64.3421 46.5055 64.18 46.686 64.0506C46.8665 63.9211 47.0721 63.8268 47.2908 63.7731L86.8499 54.0519C87.0687 53.9982 87.2965 53.986 87.5202 54.0161C87.7439 54.0462 87.9592 54.118 88.1538 54.2274C88.3484 54.3368 88.5184 54.4817 88.6543 54.6537C88.7901 54.8257 88.8891 55.0216 88.9455 55.23C89.0019 55.4385 89.0147 55.6555 88.9831 55.8687C88.9515 56.0819 88.8761 56.2871 88.7613 56.4725C88.6465 56.6579 88.4945 56.82 88.314 56.9494C88.1335 57.0789 87.9279 57.1732 87.7092 57.2269Z" fill="#F2F2F2"/>
<path d="M95.7317 61.2953L50.1125 72.947C49.8975 73.0019 49.6737 73.0143 49.4539 72.9835C49.2341 72.9528 49.0226 72.8795 48.8314 72.7678C48.6402 72.656 48.4731 72.5081 48.3397 72.3324C48.2062 72.1568 48.109 71.9568 48.0535 71.7439C47.9981 71.531 47.9856 71.3094 48.0166 71.0917C48.0477 70.874 48.1217 70.6645 48.2345 70.4751C48.3473 70.2858 48.4966 70.1203 48.674 69.9881C48.8514 69.8559 49.0533 69.7596 49.2683 69.7047L94.8875 58.053C95.3216 57.9422 95.7824 58.0066 96.1686 58.2322C96.5547 58.4579 96.8345 58.8262 96.9464 59.2561C97.0584 59.6861 96.9933 60.1425 96.7655 60.5249C96.5377 60.9073 96.1658 61.1844 95.7317 61.2953Z" fill="#F2F2F2"/>
<path d="M93.7391 82.227L55.099 91.9483C54.6675 92.0566 54.2097 91.9933 53.8261 91.7723C53.4425 91.5513 53.1645 91.1908 53.0532 90.7699C52.942 90.3491 53.0066 89.9023 53.2328 89.5279C53.4591 89.1535 53.8284 88.8821 54.2597 88.7733L92.8999 79.0519C93.3315 78.9434 93.7896 79.0065 94.1734 79.2274C94.5573 79.4484 94.8355 79.809 94.9468 80.2301C95.0581 80.6511 94.9933 81.098 94.7669 81.4725C94.5404 81.847 94.1707 82.1184 93.7391 82.227Z" fill="#F2F2F2"/>
<path d="M101.732 86.2952L56.1139 97.9466C55.8988 98.0017 55.675 98.0143 55.455 97.9837C55.2351 97.9531 55.0234 97.8798 54.8321 97.7681C54.6407 97.6564 54.4735 97.5085 54.3399 97.3328C54.2063 97.157 54.109 96.9569 54.0536 96.7439C53.9981 96.5309 53.9856 96.3092 54.0167 96.0914C54.0478 95.8735 54.1219 95.664 54.2349 95.4745C54.3478 95.2851 54.4973 95.1196 54.6749 94.9875C54.8524 94.8553 55.0546 94.7591 55.2697 94.7044L100.888 83.053C101.322 82.9422 101.782 83.0066 102.169 83.2322C102.555 83.4579 102.834 83.8261 102.946 84.2561C103.058 84.686 102.993 85.1424 102.766 85.5248C102.538 85.9072 102.166 86.1844 101.732 86.2952Z" fill="#F2F2F2"/>
<path d="M138.816 23H59.1837C56.4838 23.003 53.8952 24.0782 51.9861 25.9894C50.0769 27.9007 49.003 30.4921 49 33.1951V126.805C49.003 129.508 50.0769 132.099 51.9861 134.011C53.8952 135.922 56.4838 136.997 59.1837 137H138.816C141.516 136.997 144.105 135.922 146.014 134.011C147.923 132.099 148.997 129.508 149 126.805V33.1951C148.997 30.4921 147.923 27.9007 146.014 25.9894C144.105 24.0782 141.516 23.003 138.816 23Z" fill="#E6E6E6"/>
<path d="M138.759 26H59.2415C57.3216 26.0022 55.481 26.7668 54.1234 28.1263C52.7658 29.4857 52.0022 31.3289 52 33.2514V126.749C52.0022 128.671 52.7658 130.514 54.1234 131.874C55.481 133.233 57.3216 133.998 59.2415 134H138.759C140.678 133.998 142.519 133.233 143.877 131.874C145.234 130.514 145.998 128.671 146 126.749V33.2514C145.998 31.3289 145.234 29.4857 143.877 28.1263C142.519 26.7669 140.678 26.0022 138.759 26Z" fill="white"/>
<path d="M147.5 149C157.717 149 166 140.493 166 130C166 119.507 157.717 111 147.5 111C137.283 111 129 119.507 129 130C129 140.493 137.283 149 147.5 149Z" fill="#FF0036"/>
<path d="M156.536 127.643H149.964V121.357C149.964 120.732 149.705 120.132 149.243 119.69C148.78 119.248 148.154 119 147.5 119C146.846 119 146.22 119.248 145.757 119.69C145.295 120.132 145.036 120.732 145.036 121.357V127.643H138.464C137.811 127.643 137.184 127.891 136.722 128.333C136.26 128.775 136 129.375 136 130C136 130.625 136.26 131.225 136.722 131.667C137.184 132.109 137.811 132.357 138.464 132.357H145.036V138.643C145.036 139.268 145.295 139.868 145.757 140.31C146.22 140.752 146.846 141 147.5 141C148.154 141 148.78 140.752 149.243 140.31C149.705 139.868 149.964 139.268 149.964 138.643V132.357H156.536C157.189 132.357 157.816 132.109 158.278 131.667C158.74 131.225 159 130.625 159 130C159 129.375 158.74 128.775 158.278 128.333C157.816 127.891 157.189 127.643 156.536 127.643Z" fill="white"/>
<path d="M127.293 78H86.7109C86.4863 78.0003 86.2639 77.9488 86.0563 77.8484C85.8488 77.748 85.6601 77.6007 85.5012 77.415C85.3423 77.2293 85.2163 77.0087 85.1303 76.7659C85.0443 76.5231 85 76.2628 85 76C85 75.7372 85.0443 75.4769 85.1303 75.2341C85.2163 74.9913 85.3423 74.7707 85.5012 74.585C85.6601 74.3993 85.8488 74.252 86.0563 74.1516C86.2639 74.0512 86.4863 73.9997 86.7109 74H127.293C127.746 74.0006 128.18 74.2116 128.5 74.5866C128.82 74.9616 129 75.47 129 76C129 76.53 128.82 77.0384 128.5 77.4134C128.18 77.7884 127.746 77.9994 127.293 78Z" fill="#E6E6E6"/>
<path d="M134.293 83H86.7092C86.4848 83.0002 86.2626 82.9616 86.0553 82.8863C85.8479 82.811 85.6595 82.7006 85.5007 82.5613C85.342 82.4219 85.2161 82.2565 85.1301 82.0744C85.0442 81.8923 85 81.6971 85 81.5C85 81.3029 85.0442 81.1077 85.1301 80.9256C85.2161 80.7435 85.342 80.5781 85.5007 80.4387C85.6595 80.2994 85.8479 80.189 86.0553 80.1137C86.2626 80.0384 86.4848 79.9998 86.7092 80H134.293C134.746 80 135.18 80.158 135.5 80.4393C135.82 80.7206 136 81.1022 136 81.5C136 81.8978 135.82 82.2794 135.5 82.5607C135.18 82.842 134.746 83 134.293 83Z" fill="#E6E6E6"/>
<path d="M127.291 103H86.7109C86.4863 103 86.2638 102.962 86.0563 102.886C85.8487 102.811 85.6601 102.701 85.5012 102.561C85.3423 102.422 85.2163 102.257 85.1303 102.074C85.0443 101.892 85 101.697 85 101.5C85 101.303 85.0443 101.108 85.1303 100.926C85.2163 100.743 85.3423 100.578 85.5012 100.439C85.6601 100.299 85.8487 100.189 86.0563 100.114C86.2638 100.038 86.4863 99.9998 86.7109 100H127.291C127.744 100 128.179 100.158 128.499 100.439C128.82 100.721 129 101.102 129 101.5C129 101.898 128.82 102.279 128.499 102.561C128.179 102.842 127.744 103 127.291 103Z" fill="#E6E6E6"/>
<path d="M134.291 109H86.7091C86.4848 109 86.2626 108.962 86.0552 108.886C85.8479 108.811 85.6594 108.701 85.5007 108.561C85.342 108.422 85.2161 108.257 85.1301 108.074C85.0442 107.892 85 107.697 85 107.5C85 107.303 85.0442 107.108 85.1301 106.926C85.2161 106.743 85.342 106.578 85.5007 106.439C85.6594 106.299 85.8479 106.189 86.0552 106.114C86.2626 106.038 86.4848 106 86.7091 106H134.291C134.515 106 134.737 106.038 134.945 106.114C135.152 106.189 135.341 106.299 135.499 106.439C135.658 106.578 135.784 106.743 135.87 106.926C135.956 107.108 136 107.303 136 107.5C136 107.697 135.956 107.892 135.87 108.074C135.784 108.257 135.658 108.422 135.499 108.561C135.341 108.701 135.152 108.811 134.945 108.886C134.737 108.962 134.515 109 134.291 109Z" fill="#E6E6E6"/>
<path d="M77.1805 86H62.8194C62.6022 85.9998 62.3939 85.9159 62.2403 85.7668C62.0867 85.6176 62.0002 85.4154 62 85.2045V72.7955C62.0002 72.5846 62.0867 72.3824 62.2403 72.2332C62.3939 72.0841 62.6022 72.0002 62.8194 72H77.1805C77.3978 72.0002 77.6061 72.0841 77.7597 72.2332C77.9133 72.3824 77.9998 72.5846 78 72.7955V85.2045C77.9998 85.4154 77.9133 85.6176 77.7597 85.7668C77.6061 85.9159 77.3978 85.9998 77.1805 86Z" fill="#E6E6E6"/>
<path d="M77.1805 112H62.8194C62.6022 112 62.3939 111.91 62.2403 111.75C62.0867 111.59 62.0002 111.374 62 111.148V97.8523C62.0002 97.6263 62.0867 97.4097 62.2403 97.2499C62.3939 97.0901 62.6022 97.0002 62.8194 97H77.1805C77.3978 97.0002 77.6061 97.0901 77.7597 97.2499C77.9133 97.4097 77.9998 97.6263 78 97.8523V111.148C77.9998 111.374 77.9133 111.59 77.7597 111.75C77.6061 111.91 77.3978 112 77.1805 112Z" fill="#E6E6E6"/>
<path d="M127.257 49H96.743C96.2807 49 95.8374 48.842 95.5105 48.5607C95.1836 48.2794 95 47.8978 95 47.5C95 47.1022 95.1836 46.7206 95.5105 46.4393C95.8374 46.158 96.2807 46 96.743 46H127.257C127.719 46 128.163 46.158 128.489 46.4393C128.816 46.7206 129 47.1022 129 47.5C129 47.8978 128.816 48.2794 128.489 48.5607C128.163 48.842 127.719 49 127.257 49Z" fill="#CCCCCC"/>
<path d="M134.265 55H96.7349C96.5071 55 96.2815 54.9483 96.071 54.8478C95.8605 54.7473 95.6693 54.5999 95.5082 54.4142C95.3471 54.2285 95.2193 54.008 95.1321 53.7654C95.0449 53.5227 95 53.2626 95 53C95 52.7374 95.0449 52.4773 95.1321 52.2346C95.2193 51.992 95.3471 51.7715 95.5082 51.5858C95.6693 51.4001 95.8605 51.2527 96.071 51.1522C96.2815 51.0517 96.5071 51 96.7349 51H134.265C134.725 51 135.166 51.2107 135.492 51.5858C135.817 51.9609 136 52.4696 136 53C136 53.5304 135.817 54.0391 135.492 54.4142C135.166 54.7893 134.725 55 134.265 55Z" fill="#CCCCCC"/>
<path d="M90.1868 62H62.8132C62.5976 61.9998 62.3909 61.914 62.2385 61.7614C62.086 61.6089 62.0002 61.4021 62 61.1864V39.8136C62.0002 39.5979 62.086 39.3911 62.2385 39.2386C62.3909 39.086 62.5976 39.0002 62.8132 39H90.1868C90.4024 39.0002 90.6091 39.086 90.7615 39.2386C90.914 39.3911 90.9998 39.5979 91 39.8136V61.1864C90.9998 61.4021 90.914 61.6089 90.7615 61.7614C90.6091 61.914 90.4024 61.9998 90.1868 62Z" fill="#FF0036"/>
</svg>
