<svg width="37" height="37" viewBox="0 0 37 37" fill="none" xmlns="http://www.w3.org/2000/svg">
<path d="M9.50285 34.1091H4.38597C3.76897 34.1091 3.39673 33.7648 3.2298 33.5595C2.94161 33.205 2.82996 32.7436 2.92368 32.2935C4.42456 25.0842 10.7868 19.8194 18.1315 19.6485C18.2539 19.6531 18.3765 19.6561 18.4999 19.6561C18.6243 19.6561 18.748 19.653 18.8714 19.6484C20.6674 19.6894 22.4218 20.0271 24.0916 20.6541C24.8388 20.9349 25.6721 20.5564 25.9527 19.8091C26.2333 19.0619 25.855 18.2286 25.1077 17.948C24.8684 17.8581 24.6275 17.774 24.3854 17.6942C26.7775 15.8998 28.3279 13.0416 28.3279 9.82806C28.3279 4.4089 23.9191 0 18.4999 0C13.0806 0 8.6718 4.4089 8.6718 9.82806C8.6718 13.0445 10.2249 15.905 12.6206 17.699C10.4258 18.4215 8.36626 19.5451 6.56382 21.0277C3.25899 23.7461 0.96118 27.5378 0.0937812 31.7044C-0.17808 33.0099 0.147546 34.3509 0.987195 35.3833C1.82258 36.4106 3.06142 36.9998 4.38597 36.9998H9.50285C10.3011 36.9998 10.9481 36.3527 10.9481 35.5545C10.9481 34.7562 10.3011 34.1091 9.50285 34.1091ZM11.5624 9.82806C11.5624 6.0027 14.6745 2.89061 18.4999 2.89061C22.3252 2.89061 25.4373 6.0027 25.4373 9.82806C25.4373 13.5401 22.5067 16.5804 18.8376 16.7572C18.7251 16.7552 18.6126 16.7534 18.4999 16.7534C18.3868 16.7534 18.2739 16.7551 18.161 16.7571C14.4925 16.5798 11.5624 13.5397 11.5624 9.82806Z" fill="#F9FCFB"/>
<path d="M35.8929 24.9032C35.2743 23.5193 33.8807 22.6227 32.3392 22.6191H27.8319C27.8286 22.6191 27.8256 22.6191 27.8223 22.6191C26.1963 22.6191 24.7777 23.5774 24.2069 25.0622C24.131 25.2598 24.0381 25.5087 23.9412 25.7988H14.4784C14.0876 25.7988 13.7136 25.957 13.4414 26.2373L10.9586 28.7946C10.4118 29.3579 10.4145 30.2546 10.9648 30.8144L13.494 33.3879C13.7658 33.6644 14.1372 33.8202 14.5248 33.8202H19.2221C20.0203 33.8202 20.6674 33.1731 20.6674 32.3749C20.6674 31.5766 20.0203 30.9296 19.2221 30.9296H15.1309L14.0159 29.7951L15.0896 28.6894H25.0254C25.6912 28.6894 26.2709 28.2345 26.4292 27.5878C26.5461 27.1103 26.6928 26.6513 26.905 26.0994C27.0449 25.7355 27.3963 25.5097 27.8257 25.5097C27.8267 25.5097 27.8276 25.5097 27.8286 25.5097H32.3358C32.7445 25.5107 33.0963 25.7304 33.2539 26.083C33.6419 26.951 34.1052 28.2948 34.1087 29.7675C34.1122 31.251 33.6494 32.6256 33.2604 33.5176C33.1036 33.8773 32.7488 34.1093 32.3527 34.1093C32.3519 34.1093 32.3511 34.1093 32.3503 34.1093H27.7886C27.3888 34.1084 27.0142 33.8511 26.8567 33.4692C26.6876 33.0594 26.5412 32.5914 26.4088 32.0385C26.223 31.2623 25.4429 30.7836 24.6669 30.9693C23.8905 31.1551 23.4119 31.9351 23.5977 32.7113C23.7654 33.4122 23.9574 34.0206 24.1845 34.5713C24.7915 36.0429 26.2035 36.9961 27.7853 36.9998H32.347C32.3501 36.9998 32.353 36.9998 32.3561 36.9998C33.899 36.9998 35.2935 36.0871 35.9101 34.6728C36.4096 33.5273 37.004 31.7453 36.9993 29.7606C36.9947 27.7813 36.3951 26.0267 35.8929 24.9032Z" fill="#F9FCFB"/>
<path d="M31.146 31.2187C31.9442 31.2187 32.5913 30.5716 32.5913 29.7734C32.5913 28.9752 31.9442 28.3281 31.146 28.3281C30.3478 28.3281 29.7007 28.9752 29.7007 29.7734C29.7007 30.5716 30.3478 31.2187 31.146 31.2187Z" fill="#F9FCFB"/>
</svg>
