<svg width="25" height="25" viewBox="0 0 25 25" fill="none" xmlns="http://www.w3.org/2000/svg">
<path d="M18.6798 11.3953C18.5532 11.1156 18.2751 10.9375 17.9688 10.9375H14.8438V0.78125C14.8438 0.35 14.4938 0 14.0626 0H10.9376C10.5063 0 10.1563 0.35 10.1563 0.78125V10.9375H7.03135C6.7251 10.9375 6.44697 11.1172 6.32041 11.3953C6.19228 11.675 6.24228 12.0016 6.44385 12.2328L11.9126 18.4828C12.061 18.6531 12.2751 18.75 12.5001 18.75C12.7251 18.75 12.9392 18.6516 13.0876 18.4828L18.5563 12.2328C18.7595 12.0031 18.8063 11.675 18.6798 11.3953Z" fill="#F9FCFB"/>
<path d="M21.0938 17.1875V21.875H3.90625V17.1875H0.78125V23.4375C0.78125 24.3016 1.48125 25 2.34375 25H22.6562C23.5203 25 24.2188 24.3016 24.2188 23.4375V17.1875H21.0938Z" fill="#F9FCFB"/>
</svg>
