<svg width="23" height="23" viewBox="0 0 23 23" fill="none" xmlns="http://www.w3.org/2000/svg">
<path d="M11.5 0C5.15908 0 0 5.15863 0 11.5C0 17.8414 5.15908 23 11.5 23C17.8409 23 23 17.8414 23 11.5C23 5.15863 17.8409 0 11.5 0ZM17.0288 12.3846H12.3846V17.25C12.3846 17.7383 11.9883 18.1346 11.5 18.1346C11.0117 18.1346 10.6154 17.7383 10.6154 17.25V12.3846H5.97115C5.48285 12.3846 5.08654 11.9883 5.08654 11.5C5.08654 11.0117 5.48285 10.6154 5.97115 10.6154H10.6154V6.19231C10.6154 5.704 11.0117 5.30769 11.5 5.30769C11.9883 5.30769 12.3846 5.704 12.3846 6.19231V10.6154H17.0288C17.5172 10.6154 17.9135 11.0117 17.9135 11.5C17.9135 11.9883 17.5172 12.3846 17.0288 12.3846Z" fill="#F9FCFB"/>
</svg>
