<svg width="26" height="24" viewBox="0 0 26 24" fill="none" xmlns="http://www.w3.org/2000/svg">
<path d="M19.4999 9.86619V5.99998C19.4999 2.69239 16.5848 0 13 0C9.41594 0 6.5 2.69239 6.5 5.99998V9.86619H9.75005V5.99998C9.74992 4.34463 11.2075 2.99993 13 2.99993C14.7916 2.99993 16.25 4.34471 16.25 5.99998V9.86619H19.4999Z" fill="#F9FCFB"/>
<path d="M3.25 13.5001V21.0001C3.25 22.6569 4.70523 24.0002 6.50005 24.0002H19.5001C21.2948 24.0002 22.75 22.6569 22.75 21.0001V13.5001C22.75 11.8433 21.2948 10.5 19.5 10.5H6.50005C4.70523 10.5001 3.25 11.8433 3.25 13.5001ZM13 15.0001C13.8974 15.0001 14.625 15.6711 14.625 16.5001C14.625 17.0494 14.2893 17.5094 13.8124 17.7701V20.2501C13.8124 20.6647 13.4491 21.0001 12.9999 21.0001C12.5508 21.0001 12.1874 20.6647 12.1874 20.2501V17.7701C11.7105 17.5094 11.3748 17.0494 11.3748 16.5001C11.3751 15.6709 12.1026 15.0001 13 15.0001Z" fill="#F9FCFB"/>
</svg>
