<svg width="24" height="24" viewBox="0 0 24 24" fill="none" xmlns="http://www.w3.org/2000/svg">
<path d="M23.2008 13.682C23.1966 13.678 23.1924 13.674 23.1882 13.67L22.1218 12.732C22.1406 12.488 22.151 12.244 22.151 12C22.151 11.756 22.1406 11.51 22.1218 11.268L23.2029 10.318C24.0522 9.552 24.2484 8.336 23.6661 7.34L22.055 4.674C21.479 3.694 20.2394 3.23 19.1041 3.568L17.7267 3.984C17.2989 3.702 16.8565 3.454 16.3953 3.244L16.076 1.886C15.8151 0.776 14.8071 0 13.6217 0H10.3786C9.19325 0 8.18526 0.776 7.92648 1.882L7.60718 3.242C7.14597 3.454 6.70145 3.7 6.27571 3.982L4.89207 3.564C3.76304 3.23 2.52131 3.69 1.95784 4.656L0.323771 7.36C-0.245962 8.336 -0.0518777 9.552 0.812114 10.33L1.87854 11.268C1.86184 11.51 1.85141 11.754 1.85141 12C1.85141 12.246 1.86184 12.49 1.88063 12.732L0.799592 13.682C-0.0497908 14.448 -0.245963 15.664 0.336292 16.66L1.94741 19.326C2.5234 20.306 3.75887 20.768 4.89834 20.432L6.27571 20.016C6.70353 20.298 7.14597 20.546 7.60718 20.756L7.92648 22.114C8.18109 23.208 9.21412 24 10.3786 24H13.6217C14.7883 24 15.8193 23.208 16.0739 22.118L16.3932 20.758C16.8544 20.548 17.2989 20.3 17.7246 20.018L19.1083 20.436C20.2331 20.768 21.477 20.308 22.0425 19.344L23.6745 16.64C24.2463 15.666 24.0501 14.448 23.2008 13.682ZM12.0002 16C9.69829 16 7.82631 14.206 7.82631 12C7.82631 9.794 9.69829 8 12.0002 8C14.3021 8 16.174 9.794 16.174 12C16.174 14.206 14.3021 16 12.0002 16Z" fill="#F9FCFB"/>
</svg>
