<svg width="21" height="24" viewBox="0 0 21 24" fill="none" xmlns="http://www.w3.org/2000/svg">
<path d="M19.2498 3.30388H14.5284V1.75097C14.5284 0.78569 13.7431 0 12.7778 0H8.22295C7.25767 0 6.47234 0.78569 6.47234 1.75097V3.30388H1.7506C0.785328 3.30388 0 4.08957 0 5.05484V7.3319C0 7.73198 0.324414 8.05603 0.724138 8.05603H2.625V21.4674C2.625 22.4327 3.41033 23.2177 4.3756 23.2177H16.8959C17.8612 23.2177 18.6466 22.4327 18.6466 21.4674V8.05603H20.2759C20.6756 8.05603 21 7.73198 21 7.3319V5.05484C21 4.08957 20.215 3.30388 19.2498 3.30388ZM7.92062 1.75097C7.92062 1.58405 8.05603 1.44828 8.22259 1.44828H12.7774C12.944 1.44828 13.0797 1.58405 13.0797 1.75097V3.30388H7.92026V1.75097H7.92062ZM17.1983 21.4674C17.1983 21.6343 17.0625 21.7694 16.8959 21.7694H4.3756C4.20905 21.7694 4.07328 21.6343 4.07328 21.4674V8.05603H17.1983V21.4674ZM19.5517 6.60776H17.9224H3.34914H1.44828V5.05484C1.44828 4.88793 1.58405 4.75215 1.7506 4.75215H7.19612H13.8039H19.2494C19.4159 4.75215 19.5517 4.88793 19.5517 5.05484V6.60776Z" fill="#F9FCFB"/>
</svg>
